<?xml version="1.0" encoding="utf-8"?>
<!-- Generator: Adobe Illustrator 18.0.0, SVG Export Plug-In . SVG Version: 6.00 Build 0)  -->
<!DOCTYPE svg PUBLIC "-//W3C//DTD SVG 1.1//EN" "http://www.w3.org/Graphics/SVG/1.1/DTD/svg11.dtd">
<svg version="1.1" id="Laag_1" xmlns="http://www.w3.org/2000/svg" xmlns:xlink="http://www.w3.org/1999/xlink" x="0px" y="0px"
	 viewBox="0 0 419.6 270.4" enable-background="new 0 0 419.6 270.4" xml:space="preserve" style="fill: transparent">
<text transform="matrix(1 0 0 1 20.9053 145.77)" fill="#1D1D1B" font-family="'Michroma'" font-size="58" letter-spacing="3">Dimac</text>
<path fill-rule="evenodd" clip-rule="evenodd" fill="#D65E06" d="M95.7,161.6c-6.1,7.3-12.3,14.7-18.4,22c0.5,0.5,1.1,1,1.6,1.4
	c7.2-7.3,14.4-14.5,21.6-21.8C98.9,162.7,97.3,162.2,95.7,161.6z"/>
<path fill-rule="evenodd" clip-rule="evenodd" fill="#D65E06" d="M328.6,97.6c0.2-1.6,0.3-2.5,0.3-3.3c-0.3-13.9-0.5-27.7-1-41.6
	c-0.3-8.9-1.8-17.8,2.8-26.4c2.1-3.8,0.7-5.2-3.9-5.2c-11.6,0-23.2,0-34.7,0c-3.4,0-6.8,0.3-10.8,0.6c0.5,1.9,0.5,3.8,1.5,4.9
	c2.4,2.7,2.4,5.8,2.4,9.1c0,5.1,0,10.2,0.1,15.3C268.9,33.8,252.6,16.8,236,0c-25.5,30.5-50.8,60.9-76.1,91.1
	c3.9,1.7,7.5,3.9,11.3,5.9c20.8-21,41.5-42.1,62.4-63.2c1.1,1.7,1.8,2.8,2.4,3.9c24.6,45,49.1,90,73.6,135.1
	c1.7,3.2,3.3,3.8,6.9,3.3c18.3-2.5,36.6-4.5,54.9-6.7c6.7-0.8,13.4-1.4,21.3-2.2C371.2,143.9,350,120.7,328.6,97.6z"/>
<path fill-rule="evenodd" clip-rule="evenodd" fill="#D65E06" d="M396.1,171.6C396,171.5,396,171.5,396.1,171.6
	c-5.3,0.4-10.5,0.9-15.8,1.5c-32.7,3.7-65.2,8.9-97.4,16.3c-35.2,8.1-69.8,18-103.5,30.8c-32.7,12.4-64.1,27.3-93.4,46.6
	c-1.3,0.8-3.3,2.1-5.3,3.5c9.4,0,19.2,0,27.2,0c14.2,0,24.6,0.2,38.8,0c2.7-0.1,8.5-1.4,10.8-2.6c9-4.8,17.7-10.2,26.7-14.9
	c41.8-21.8,85.9-38,131.3-50.4c29.4-8,59.2-14.3,89.1-19.5C402,179,399.4,175,396.1,171.6z"/>
<path fill-rule="evenodd" clip-rule="evenodd" fill="#D65E06" d="M0,269.6c2.1-1.9,3.5-3.3,5.1-4.5c30.2-22.2,63.1-39.5,97.4-54.2
	c29.7-12.7,60.2-23.1,91.8-29.4c15.6-3.1,31.5-4.8,47.4-5.9c13.7-1,27.5-0.2,41.2-0.2c1.7,0,3.3,0.3,5,0.5c0,0.4,0.1,0.8,0.1,1.3
	c-1.7,0.4-3.4,1-5.1,1.3c-28.5,5.7-57.4,9.6-85.2,18.6c-10.2,3.3-20.1,7.6-30.2,11.6c-28.2,11.2-55.5,24.3-81.1,40.6
	c-9.2,5.9-17.8,12.7-26.7,18.9c-1.5,1-3.4,1.9-5.1,1.9c-17,0.2-34,0.1-51,0.1C2.8,270.3,1.9,270,0,269.6z"/>
<path fill-rule="evenodd" clip-rule="evenodd" fill="#333332" d="M408.4,190.1c0,0-145.5,24-234,80.3c15.1,0,31.9,0,46.7-0.1
	c8.4-0.1,15.2-4.5,22.2-8.4c8.2-4.5,16.5-8.7,24.9-12.9c26.3-13,67.1-24.1,95.2-31.6c20.9-5.7,47.4-10.5,56.2-10.3L408.4,190.1z"/>
</svg>
